<mxfile host="65bd71144e">
    <diagram id="1mIjxT_VNuVrrERKfQBY" name="Page-1">
        <mxGraphModel dx="856" dy="615" grid="1" gridSize="10" guides="1" tooltips="1" connect="1" arrows="1" fold="1" page="1" pageScale="1" pageWidth="850" pageHeight="1100" math="0" shadow="0">
            <root>
                <mxCell id="0"/>
                <mxCell id="1" parent="0"/>
                <mxCell id="2" value="" style="whiteSpace=wrap;html=1;aspect=fixed;fillColor=#4D4D4D;gradientColor=none;strokeColor=#FFFF66;strokeWidth=5;" vertex="1" parent="1">
                    <mxGeometry x="50" y="20" width="760" height="760" as="geometry"/>
                </mxCell>
                <mxCell id="3" value="&lt;font color=&quot;#ffff66&quot; style=&quot;font-size: 32px;&quot;&gt;APP.JS&lt;br style=&quot;font-size: 32px;&quot;&gt;&lt;/font&gt;" style="text;html=1;resizable=0;autosize=1;align=center;verticalAlign=middle;points=[];fillColor=none;strokeColor=none;rounded=0;fontSize=32;" vertex="1" parent="1">
                    <mxGeometry x="370" y="30" width="120" height="40" as="geometry"/>
                </mxCell>
                <mxCell id="4" value="&lt;div style=&quot;text-align: left&quot;&gt;&lt;span style=&quot;line-height: 1&quot;&gt;State:&lt;/span&gt;&lt;/div&gt;&lt;div style=&quot;text-align: left&quot;&gt;&lt;span style=&quot;line-height: 1&quot;&gt;- stack&amp;nbsp;&lt;/span&gt;&lt;/div&gt;" style="text;html=1;resizable=0;autosize=1;align=center;verticalAlign=middle;points=[];fillColor=none;strokeColor=none;rounded=0;fontSize=24;fontColor=#FFFF66;" vertex="1" parent="1">
                    <mxGeometry x="210" y="80" width="90" height="60" as="geometry"/>
                </mxCell>
                <mxCell id="5" value="Functions:&lt;br&gt;&lt;div&gt;&lt;span&gt;- handleAddToStack&lt;/span&gt;&lt;/div&gt;&lt;div&gt;&lt;span&gt;- handleRemoveFromStack&lt;/span&gt;&lt;/div&gt;" style="text;html=1;resizable=0;autosize=1;align=left;verticalAlign=bottom;points=[];fillColor=none;strokeColor=none;rounded=0;fontSize=24;fontColor=#FFFF66;" vertex="1" parent="1">
                    <mxGeometry x="300" y="160" width="310" height="90" as="geometry"/>
                </mxCell>
                <mxCell id="12" value="" style="swimlane;startSize=0;fontSize=24;fontColor=#33FF33;strokeColor=#33FF33;strokeWidth=5;fillColor=#666666;gradientColor=none;swimlaneLine=0;swimlaneFillColor=#666666;" vertex="1" parent="1">
                    <mxGeometry x="440" y="280" width="350" height="470" as="geometry">
                        <mxRectangle x="410" y="130" width="50" height="40" as="alternateBounds"/>
                    </mxGeometry>
                </mxCell>
                <mxCell id="18" value="&lt;div&gt;&lt;span style=&quot;line-height: 1&quot;&gt;Props:&lt;/span&gt;&lt;/div&gt;&lt;div&gt;&lt;span style=&quot;line-height: 1&quot;&gt;- stack: this.state.stack&lt;/span&gt;&lt;/div&gt;&lt;div&gt;&lt;span style=&quot;line-height: 1&quot;&gt;- handleRemoveFromStack&lt;/span&gt;&lt;/div&gt;" style="text;html=1;resizable=0;autosize=1;align=left;verticalAlign=bottom;points=[];fillColor=none;strokeColor=none;rounded=0;fontSize=24;fontColor=#33FF33;labelPosition=center;verticalLabelPosition=middle;" vertex="1" parent="12">
                    <mxGeometry x="30" y="90" width="310" height="90" as="geometry"/>
                </mxCell>
                <mxCell id="24" value="" style="swimlane;startSize=0;fontSize=24;fontColor=#9933FF;strokeColor=#9933FF;strokeWidth=5;fillColor=#333333;gradientColor=none;swimlaneLine=0;swimlaneFillColor=#999999;" vertex="1" parent="12">
                    <mxGeometry x="15" y="240" width="320" height="200" as="geometry"/>
                </mxCell>
                <mxCell id="25" value="INGREDIENT.JSX" style="text;html=1;resizable=0;autosize=1;align=center;verticalAlign=middle;points=[];fillColor=none;strokeColor=none;rounded=0;fontSize=26;fontColor=#9933FF;" vertex="1" parent="24">
                    <mxGeometry x="45" y="10" width="230" height="40" as="geometry"/>
                </mxCell>
                <mxCell id="26" value="&lt;div&gt;&lt;span style=&quot;line-height: 1&quot;&gt;Props:&lt;/span&gt;&lt;/div&gt;&lt;div&gt;&lt;span style=&quot;line-height: 1&quot;&gt;- item: this.state.stack&lt;/span&gt;&lt;/div&gt;&lt;div&gt;&lt;span&gt;- handleRemoveToStack&lt;/span&gt;&lt;/div&gt;" style="text;html=1;resizable=0;autosize=1;align=left;verticalAlign=bottom;points=[];fillColor=none;strokeColor=none;rounded=0;fontSize=24;fontColor=#9933FF;labelPosition=center;verticalLabelPosition=middle;" vertex="1" parent="24">
                    <mxGeometry x="20" y="55" width="280" height="90" as="geometry"/>
                </mxCell>
                <mxCell id="13" value="&lt;font color=&quot;#33ff33&quot; style=&quot;font-size: 28px;&quot;&gt;BURGERPANE.JSX&lt;/font&gt;" style="text;html=1;resizable=0;autosize=1;align=center;verticalAlign=middle;points=[];fillColor=none;strokeColor=none;rounded=0;fontSize=28;fontColor=#FF9933;" vertex="1" parent="12">
                    <mxGeometry x="40" y="10" width="270" height="40" as="geometry"/>
                </mxCell>
                <mxCell id="14" value="" style="swimlane;startSize=0;fontSize=24;fontColor=#33FF33;strokeColor=#FF9933;strokeWidth=5;fillColor=#666666;gradientColor=none;swimlaneLine=0;swimlaneFillColor=#666666;" vertex="1" parent="1">
                    <mxGeometry x="70" y="280" width="355" height="470" as="geometry">
                        <mxRectangle x="410" y="130" width="50" height="40" as="alternateBounds"/>
                    </mxGeometry>
                </mxCell>
                <mxCell id="16" value="INGREDIENTLIST.JSX" style="text;html=1;resizable=0;autosize=1;align=center;verticalAlign=middle;points=[];fillColor=none;strokeColor=none;rounded=0;fontSize=28;fontColor=#FF9933;" vertex="1" parent="14">
                    <mxGeometry x="27.5" y="10" width="300" height="40" as="geometry"/>
                </mxCell>
                <mxCell id="17" value="&lt;div&gt;&lt;span style=&quot;line-height: 1&quot;&gt;Props:&lt;/span&gt;&lt;/div&gt;&lt;div&gt;&lt;span style=&quot;line-height: 1&quot;&gt;- items: ingredientsArr&lt;/span&gt;&lt;/div&gt;&lt;div&gt;&lt;span style=&quot;line-height: 1&quot;&gt;- handleAddToStack&lt;/span&gt;&lt;/div&gt;" style="text;html=1;resizable=0;autosize=1;align=left;verticalAlign=bottom;points=[];fillColor=none;strokeColor=none;rounded=0;fontSize=24;fontColor=#FF9933;labelPosition=center;verticalLabelPosition=middle;" vertex="1" parent="14">
                    <mxGeometry x="52.5" y="90" width="250" height="90" as="geometry"/>
                </mxCell>
                <mxCell id="19" value="" style="swimlane;startSize=0;fontSize=24;fontColor=#9933FF;strokeColor=#9933FF;strokeWidth=5;fillColor=#333333;gradientColor=none;swimlaneLine=0;swimlaneFillColor=#999999;" vertex="1" parent="14">
                    <mxGeometry x="17.5" y="240" width="320" height="200" as="geometry"/>
                </mxCell>
                <mxCell id="21" value="INGREDIENT.JSX" style="text;html=1;resizable=0;autosize=1;align=center;verticalAlign=middle;points=[];fillColor=none;strokeColor=none;rounded=0;fontSize=26;fontColor=#9933FF;" vertex="1" parent="19">
                    <mxGeometry x="45" y="10" width="230" height="40" as="geometry"/>
                </mxCell>
                <mxCell id="22" value="&lt;div&gt;&lt;span style=&quot;line-height: 1&quot;&gt;Props:&lt;/span&gt;&lt;/div&gt;&lt;div&gt;&lt;span style=&quot;line-height: 1&quot;&gt;- item: items&lt;/span&gt;&lt;/div&gt;&lt;div&gt;&lt;span&gt;- handleAddToStack&lt;/span&gt;&lt;/div&gt;" style="text;html=1;resizable=0;autosize=1;align=left;verticalAlign=bottom;points=[];fillColor=none;strokeColor=none;rounded=0;fontSize=24;fontColor=#9933FF;labelPosition=center;verticalLabelPosition=middle;" vertex="1" parent="19">
                    <mxGeometry x="45" y="55" width="230" height="90" as="geometry"/>
                </mxCell>
                <mxCell id="27" value="&lt;div style=&quot;text-align: left&quot;&gt;Data:&lt;/div&gt;&lt;div style=&quot;text-align: left&quot;&gt;- ingredientsArr&lt;/div&gt;" style="text;html=1;resizable=0;autosize=1;align=center;verticalAlign=middle;points=[];fillColor=none;strokeColor=none;rounded=0;fontSize=24;fontColor=#FFFF66;" vertex="1" parent="1">
                    <mxGeometry x="540" y="80" width="180" height="60" as="geometry"/>
                </mxCell>
            </root>
        </mxGraphModel>
    </diagram>
</mxfile>